<svg id="Ebene_1" data-name="Ebene 1" xmlns="http://www.w3.org/2000/svg" xmlns:xlink="http://www.w3.org/1999/xlink" viewBox="0 0 114.3206 88.7767"><defs><style>.cls-1{fill:url(#Unbenannter_Verlauf_43);}.cls-2{fill:#0eaeff;}.cls-3{fill:#0e87ff;}.cls-4{fill:#f8881f;}.cls-5{fill:#ffc200;}.cls-6{fill:url(#Neues_Verlaufsfeld_1);}.cls-7{fill:#fff;}</style><linearGradient id="Unbenannter_Verlauf_43" x1="5.7059" y1="71.0414" x2="86.7059" y2="71.0414" gradientUnits="userSpaceOnUse"><stop offset="0" stop-color="#0e87ff"/><stop offset="1" stop-color="#0eaeff"/></linearGradient><linearGradient id="Neues_Verlaufsfeld_1" x1="5.7059" y1="32.6083" x2="86.7059" y2="32.6083" gradientUnits="userSpaceOnUse"><stop offset="0" stop-color="#f8881f"/><stop offset="0.2405" stop-color="#f98d1c"/><stop offset="0.54" stop-color="#fa9d14"/><stop offset="0.8696" stop-color="#feb606"/><stop offset="1" stop-color="#ffc200"/></linearGradient></defs><rect class="cls-1" x="5.7059" y="54.3061" width="81" height="33.4706"/><path class="cls-2" d="M98.8718,25.293l6.85-8.93h-3.64l-6.79,9.13,7.02,10.49h3.95Zm-7.02-8.93v19.62h3.3V16.363Z" transform="translate(5.7059 7.7767)"/><path class="cls-3" d="M101.2247,40.31l6.85-8.93h-3.64l-6.79,9.13,7.02,10.49h3.95Zm-7.02-8.93V51h3.3V31.38Z" transform="translate(5.7059 7.7767)"/><path class="cls-4" d="M86.0425,7.233,84.3369-3.4279,82.5179,7.233H78.6227l-2.53-15.01h3.07l1.5635,13.02L82.83-5.8729h3.184L87.9468,5.2428,89.51-7.7767h2.9572L90.0224,7.233Z" transform="translate(5.7059 7.7767)"/><path class="cls-5" d="M92.0425,17.2148,90.3369,6.5539l-1.819,10.6609H84.6227l-2.53-15.01h3.07l1.5635,13.02L88.83,4.1088h3.184l1.9326,11.1157L95.51,2.205h2.9572l-2.4452,15.01Z" transform="translate(5.7059 7.7767)"/><rect class="cls-6" x="5.7059" y="7.7767" width="81" height="49.6631"/><path class="cls-7" d="M-4.88,5.47V49.66H78.76V5.47ZM14.74,19.7a9.7527,9.7527,0,0,1,.82-4.05,6.3837,6.3837,0,0,1,6.03-3.85,5.978,5.978,0,0,1,4.73,2,8.1289,8.1289,0,0,1,1.75,5.51,9.6607,9.6607,0,0,1-.08,1.42H18.03a4.8686,4.8686,0,0,0,1.27,3.28,3.88,3.88,0,0,0,2.83,1.09,5.9019,5.9019,0,0,0,2-.32,9.3736,9.3736,0,0,0,1.95-.98l1.36,1.93a7.5621,7.5621,0,0,1-2.47,1.36,9.172,9.172,0,0,1-2.98.49,6.7869,6.7869,0,0,1-5.35-2.15A8.2876,8.2876,0,0,1,14.74,19.7ZM10.67,7.59h3.64L7.46,16.52l7.39,10.69H10.9L3.88,16.72ZM.44,7.59h3.3V27.21H.44ZM9.95,49.08,8.24,38.42,6.43,49.08H2.53L0,34.07H3.07L4.63,47.09,6.74,35.97H9.92l1.93,11.12,1.57-13.02h2.95L13.93,49.08Zm18.16-1.77a6.1557,6.1557,0,0,1-5,2.14,6.267,6.267,0,0,1-5.02-2.09,8.6178,8.6178,0,0,1-1.77-5.79,8.6163,8.6163,0,0,1,1.8-5.74,6.182,6.182,0,0,1,5.02-2.16,6.1217,6.1217,0,0,1,5,2.12,8.7053,8.7053,0,0,1,1.77,5.75A8.6791,8.6791,0,0,1,28.11,47.31Zm2.4-16.35a7.6515,7.6515,0,0,0,2.39-.7,4.1516,4.1516,0,0,0,1.45-1.18c.1-.15.2-.3.29-.45l-1.93-5.96L29.18,12.2h3.38l3.78,12.79L40.18,12.2h3.27L38.27,27.26a9.65,9.65,0,0,1-2.62,4.28,7.91,7.91,0,0,1-4.74,1.81ZM44.4,39.61H42.13V36.54a3.7656,3.7656,0,0,0-2.73,1.25,8.4143,8.4143,0,0,0-1.82,3.44V46.8h3.01v2.28H32.18V46.8H34.4V36.34H32.18V34.07h4.63l.57,3.46a7.2647,7.2647,0,0,1,2.15-2.88,5.0269,5.0269,0,0,1,3.14-.95,7.012,7.012,0,0,1,2.27.37Zm14.56,9.47H56.14l-.22-1.85a4.9427,4.9427,0,0,1-4.21,2.22,4.806,4.806,0,0,1-4.24-2.11,10.2465,10.2465,0,0,1-1.42-5.77,10.7694,10.7694,0,0,1,.73-4.09,6.3188,6.3188,0,0,1,2.06-2.8,5.0468,5.0468,0,0,1,3.15-1.01,4.8206,4.8206,0,0,1,3.78,1.65V27.67l3.19.37Zm13.1-.81a8.9375,8.9375,0,0,1-4.72,1.18,9.1412,9.1412,0,0,1-6.17-2.11l1.68-1.93a8.1481,8.1481,0,0,0,2.09,1.18,6.7993,6.7993,0,0,0,2.4.44,4.4845,4.4845,0,0,0,2.38-.54,1.6431,1.6431,0,0,0,.86-1.48,1.9566,1.9566,0,0,0-.25-1.06,2.2772,2.2772,0,0,0-1.02-.77A14.521,14.521,0,0,0,67,42.42a9.97,9.97,0,0,1-3.71-1.6,3.3794,3.3794,0,0,1-1.23-2.83,3.6845,3.6845,0,0,1,1.62-3.14,7.2726,7.2726,0,0,1,4.37-1.18,9.4217,9.4217,0,0,1,5.72,1.73L72.4,37.42a7.6211,7.6211,0,0,0-4.26-1.34c-1.9,0-2.84.55-2.84,1.65a1.3308,1.3308,0,0,0,.32.94,3.1569,3.1569,0,0,0,1.13.7,21.5659,21.5659,0,0,0,2.36.75,10.1205,10.1205,0,0,1,3.65,1.68,3.6633,3.6633,0,0,1,1.21,2.98A3.8592,3.8592,0,0,1,72.06,48.27Z" transform="translate(5.7059 7.7767)"/><path class="cls-7" d="M24.97,18.57H18.01a5.5222,5.5222,0,0,1,1.1-3.3,3.1857,3.1857,0,0,1,2.51-1.11,2.87,2.87,0,0,1,2.44,1.14A5.645,5.645,0,0,1,24.97,18.57Z" transform="translate(5.7059 7.7767)"/><path class="cls-7" d="M26.55,41.54a7.892,7.892,0,0,1-.85,4.13A2.8751,2.8751,0,0,1,23.11,47a2.8667,2.8667,0,0,1-2.59-1.32,7.82,7.82,0,0,1-.85-4.11,7.63,7.63,0,0,1,.87-4.09,2.8684,2.8684,0,0,1,2.6-1.34,2.86,2.86,0,0,1,2.56,1.32A7.7132,7.7132,0,0,1,26.55,41.54Z" transform="translate(5.7059 7.7767)"/><path class="cls-7" d="M55.77,37.79v7.08a3.7864,3.7864,0,0,1-3.21,2.16q-3.12,0-3.12-5.46a7.7326,7.7326,0,0,1,.86-4.11,2.83,2.83,0,0,1,2.52-1.35A3.4812,3.4812,0,0,1,55.77,37.79Z" transform="translate(5.7059 7.7767)"/><rect class="cls-7" y="2.5414" width="89.9861" height="11.5294"/><rect class="cls-7" x="83.0588" y="12.3061" width="4.7398" height="46.4713"/><path class="cls-7" d="M60.83,49.66a2.0132,2.0132,0,0,1,1.42.59,1.9324,1.9324,0,0,1,.59,1.43,1.895,1.895,0,0,1-.59,1.42,2.2587,2.2587,0,0,1-3,0,2.0149,2.0149,0,0,1,1.44-3.44H-4.88V81H92.47V49.66ZM3.74,72.04H.44V52.42h3.3Zm7.16,0L3.88,61.55l6.79-9.13h3.64L7.46,61.35l7.39,10.69Zm14.78-1.77a6.1686,6.1686,0,0,1-5,2.14,6.21,6.21,0,0,1-5.02-2.09,8.6789,8.6789,0,0,1-1.78-5.79,8.6783,8.6783,0,0,1,1.81-5.74,6.182,6.182,0,0,1,5.02-2.16,6.1344,6.1344,0,0,1,5,2.12,8.697,8.697,0,0,1,1.76,5.75A8.6709,8.6709,0,0,1,25.68,70.27Zm13.19,1.82a9.1767,9.1767,0,0,1-2.39.32,5.5123,5.5123,0,0,1-3.95-1.33,4.7144,4.7144,0,0,1-1.39-3.59V59.36H27.81V57.03h3.33V53.67l3.18-.37v3.73h5.09l-.37,2.33H34.32v8.1a2.381,2.381,0,0,0,.63,1.8,2.8634,2.8634,0,0,0,1.99.59,5.7041,5.7041,0,0,0,2.79-.71l1.13,2.1A7.2884,7.2884,0,0,1,38.87,72.09Zm10.43.32a4.39,4.39,0,0,1-4.77-3.95,4.2757,4.2757,0,0,1,0-.8V53.33H40.01V51h7.7V67.94c0,1.27.76,1.91,2.28,1.91a6.4694,6.4694,0,0,0,2.38-.51l.8,2.21A8.0039,8.0039,0,0,1,49.3,72.41Zm17.74-.37H55.3V69.71h4.46V59.36H55.44V57.03h7.51V69.71h4.09Zm13.96,0H77.82V62.68a11.8653,11.8653,0,0,0-.16-2.14,1.7892,1.7892,0,0,0-.61-1.11,2.1953,2.1953,0,0,0-1.37-.36,3.4756,3.4756,0,0,0-1.94.63,6.0118,6.0118,0,0,0-1.58,1.56V72.04H68.98V57.03h2.75l.23,1.96a6.5632,6.5632,0,0,1,2.2-1.75,6.132,6.132,0,0,1,2.66-.61,4.0055,4.0055,0,0,1,3.13,1.16A4.7592,4.7592,0,0,1,81,61.09Z" transform="translate(5.7059 7.7767)"/><path class="cls-7" d="M24.12,64.5a7.872,7.872,0,0,1-.85,4.13,2.8751,2.8751,0,0,1-2.59,1.33,2.8667,2.8667,0,0,1-2.59-1.32,7.7057,7.7057,0,0,1-.85-4.11,7.5585,7.5585,0,0,1,.87-4.09,2.8891,2.8891,0,0,1,2.6-1.34,2.86,2.86,0,0,1,2.56,1.32A7.7132,7.7132,0,0,1,24.12,64.5Z" transform="translate(5.7059 7.7767)"/></svg>