<svg id="Ebene_1" data-name="Ebene 1" width="81" height="80" xmlns="http://www.w3.org/2000/svg" viewBox="0 0 74.083 59.2788"><defs><style>.cls-1{fill:#f8881f;}.cls-2{fill:#0eaeff;}</style></defs><path class="cls-1" d="M3.4648,28.8984v-17.94H6.481v17.94Zm9.36-17.94h3.3281L9.8867,19.1226l6.76,9.7758H13.0327L6.6108,19.3042Z" transform="translate(-3.0635 -10.9585)"/><path class="cls-1" d="M20.7148,25.9736a3.555,3.555,0,0,0,2.587,1.001,5.5928,5.5928,0,0,0,1.833-.2993,7.9378,7.9378,0,0,0,1.7812-.897l1.2481,1.7681a6.9757,6.9757,0,0,1-2.2618,1.248,8.4322,8.4322,0,0,1-2.73.4419,6.1908,6.1908,0,0,1-4.8877-1.9629,7.602,7.602,0,0,1-1.7422-5.2387,8.8158,8.8158,0,0,1,.7544-3.7051,5.8293,5.8293,0,0,1,5.5122-3.523,5.4489,5.4489,0,0,1,4.3281,1.833,7.3917,7.3917,0,0,1,1.6,5.0308,9.0211,9.0211,0,0,1-.0781,1.3H19.5576A4.4422,4.4422,0,0,0,20.7148,25.9736Zm-.1689-7.9951a4.9876,4.9876,0,0,0-1.0137,3.0161h6.37a5.1615,5.1615,0,0,0-.832-2.99,2.629,2.629,0,0,0-2.2363-1.04A2.8936,2.8936,0,0,0,20.5459,17.9785Z" transform="translate(-3.0635 -10.9585)"/><path class="cls-1" d="M38.0693,28.95a8.95,8.95,0,0,1-2.4043,3.9136,7.198,7.198,0,0,1-4.3291,1.65l-.3642-2.1836a7.2341,7.2341,0,0,0,2.1836-.6368,3.8553,3.8553,0,0,0,1.3261-1.0795,6.57,6.57,0,0,0,.8838-1.7159h-.9873L29.75,15.17h3.0938l3.458,11.7,3.51-11.7h2.99Z" transform="translate(-3.0635 -10.9585)"/><path class="cls-1" d="M12.1636,48.8994l-1.56-9.7505L8.94,48.8994H5.3774L3.0635,35.1714H5.8716l1.43,11.9077L9.2256,36.9126h2.9121l1.7676,10.1665,1.43-11.9077H18.04l-2.2364,13.728Z" transform="translate(-3.0635 -10.9585)"/><path class="cls-1" d="M28.8037,36.7437A7.9842,7.9842,0,0,1,30.415,42.01a7.9447,7.9447,0,0,1-1.6386,5.2773,5.6468,5.6468,0,0,1-4.5762,1.95,5.6907,5.6907,0,0,1-4.5879-1.9111,7.91,7.91,0,0,1-1.6255-5.291,7.927,7.927,0,0,1,1.6509-5.2525,5.6589,5.6589,0,0,1,4.59-1.9756A5.6247,5.6247,0,0,1,28.8037,36.7437Zm-6.9551,1.5468a6.9954,6.9954,0,0,0-.7929,3.7447,7.0835,7.0835,0,0,0,.7793,3.7568A2.6216,2.6216,0,0,0,24.2,47.001a2.6143,2.6143,0,0,0,2.3672-1.2217,7.1592,7.1592,0,0,0,.7793-3.77,7.0258,7.0258,0,0,0-.7793-3.732,2.6007,2.6007,0,0,0-2.34-1.209A2.6446,2.6446,0,0,0,21.8486,38.2905Z" transform="translate(-3.0635 -10.9585)"/><path class="cls-1" d="M44.1689,35.1714l-.4941,5.0693h-2.08V37.4331a3.4376,3.4376,0,0,0-2.4961,1.1436,7.5988,7.5988,0,0,0-1.664,3.1469v5.0957H40.19v2.08H32.4951v-2.08h2.0274V37.2505H32.4951V35.1714h4.2373l.52,3.1719a6.6857,6.6857,0,0,1,1.9629-2.64,4.6438,4.6438,0,0,1,2.8731-.8711A6.5312,6.5312,0,0,1,44.1689,35.1714Z" transform="translate(-3.0635 -10.9585)"/><path class="cls-1" d="M56.9873,29.6587V48.8994H54.4131l-.208-1.69a4.5121,4.5121,0,0,1-3.8477,2.0283,4.3661,4.3661,0,0,1-3.874-1.9238,9.3182,9.3182,0,0,1-1.3-5.2783,9.933,9.933,0,0,1,.6621-3.7447A5.8831,5.8831,0,0,1,47.7314,35.73a4.6516,4.6516,0,0,1,2.8858-.9229,4.4376,4.4376,0,0,1,3.458,1.5078V29.3208ZM49.07,38.2778a7.0642,7.0642,0,0,0-.793,3.7574q0,4.9921,2.8594,4.9921a3.4854,3.4854,0,0,0,2.9385-1.9755V38.5767a3.1882,3.1882,0,0,0-2.7041-1.5342A2.568,2.568,0,0,0,49.07,38.2778Z" transform="translate(-3.0635 -10.9585)"/><path class="cls-1" d="M66.8271,46.5332a1.5211,1.5211,0,0,0,.793-1.3516,1.826,1.826,0,0,0-.2334-.9755,2.1212,2.1212,0,0,0-.9365-.7012,13.2833,13.2833,0,0,0-2.1055-.69,9.11,9.11,0,0,1-3.3935-1.4687A3.1091,3.1091,0,0,1,59.82,38.7593a3.3812,3.3812,0,0,1,1.4824-2.8731,6.6651,6.6651,0,0,1,4.0039-1.0791,8.6484,8.6484,0,0,1,5.2256,1.586l-1.248,1.8457a6.95,6.95,0,0,0-3.8994-1.2217q-2.6,0-2.6006,1.5078a1.2449,1.2449,0,0,0,.3.8584A2.7874,2.7874,0,0,0,64.11,40.02a19.7888,19.7888,0,0,0,2.1582.6885,9.1983,9.1983,0,0,1,3.3408,1.5347,3.3349,3.3349,0,0,1,1.1054,2.73,3.5125,3.5125,0,0,1-1.7421,3.1846,8.05,8.05,0,0,1-4.3165,1.0791,8.3389,8.3389,0,0,1-5.6416-1.9238l1.5342-1.7676A7.2524,7.2524,0,0,0,62.46,46.624a6.0674,6.0674,0,0,0,2.1962.4033A4.0789,4.0789,0,0,0,66.8271,46.5332Z" transform="translate(-3.0635 -10.9585)"/><path class="cls-2" d="M3.4648,69.8994V51.959H6.481v17.94Zm9.36-17.94h3.3281L9.8867,60.123l6.76,9.7764H13.0327L6.6108,60.3057Z" transform="translate(-3.0635 -10.9585)"/><path class="cls-2" d="M26.5791,57.7441A7.9842,7.9842,0,0,1,28.19,63.01a7.9447,7.9447,0,0,1-1.6386,5.2773,5.6468,5.6468,0,0,1-4.5762,1.95,5.6931,5.6931,0,0,1-4.5884-1.9111,7.9125,7.9125,0,0,1-1.625-5.291,7.9265,7.9265,0,0,1,1.6509-5.252,5.6574,5.6574,0,0,1,4.59-1.9756A5.6249,5.6249,0,0,1,26.5791,57.7441ZM19.623,59.291a6.9991,6.9991,0,0,0-.7929,3.7442,7.0776,7.0776,0,0,0,.78,3.7568,2.6215,2.6215,0,0,0,2.3652,1.209,2.6144,2.6144,0,0,0,2.3672-1.2217,7.1592,7.1592,0,0,0,.7793-3.77,7.025,7.025,0,0,0-.7793-3.7315,2.6008,2.6008,0,0,0-2.34-1.209A2.6474,2.6474,0,0,0,19.623,59.291Z" transform="translate(-3.0635 -10.9585)"/><path class="cls-2" d="M38.6162,69.9512a8.2138,8.2138,0,0,1-2.1836.2861,5.0454,5.0454,0,0,1-3.6142-1.209,4.3168,4.3168,0,0,1-1.2745-3.289V58.3037H28.502V56.1719h3.0419V53.1035l2.9122-.3379v3.4063H39.11l-.3379,2.1318H34.4561v7.41a2.152,2.152,0,0,0,.5722,1.65,2.61,2.61,0,0,0,1.82.5332,5.16,5.16,0,0,0,2.5479-.65l1.04,1.9248A6.7127,6.7127,0,0,1,38.6162,69.9512Z" transform="translate(-3.0635 -10.9585)"/><path class="cls-2" d="M46.7012,66.1553q0,1.7417,2.08,1.7422a5.7826,5.7826,0,0,0,2.1846-.4678l.7276,2.0273a7.3006,7.3006,0,0,1-3.5362.78,4.0075,4.0075,0,0,1-4.3681-4.3418V52.791H39.6553V50.6592h7.0459Z" transform="translate(-3.0635 -10.9585)"/><path class="cls-2" d="M60.6367,67.7676h3.7442v2.1318H53.6426V67.7676h4.082V58.3037H53.7734V56.1719h6.8633ZM60,49.9707a1.7838,1.7838,0,0,1,.5332,1.3125A1.7384,1.7384,0,0,1,60,52.583a2.0674,2.0674,0,0,1-2.7432,0,1.9022,1.9022,0,0,1,.0127-2.626,1.8777,1.8777,0,0,1,1.3653-.52A1.8484,1.8484,0,0,1,60,49.9707Z" transform="translate(-3.0635 -10.9585)"/><path class="cls-2" d="M66.1494,56.1719h2.5215l.208,1.7939a5.9575,5.9575,0,0,1,2.0147-1.6,5.5292,5.5292,0,0,1,2.4316-.5586,3.6584,3.6584,0,0,1,2.8594,1.0654,4.3477,4.3477,0,0,1,.9619,3.0166v10.01H74.2354V61.3457a10.22,10.22,0,0,0-.1436-1.9629,1.667,1.667,0,0,0-.5586-1.0146,2.0114,2.0114,0,0,0-1.248-.3252,3.1316,3.1316,0,0,0-1.7813.5722,5.5389,5.5389,0,0,0-1.4434,1.4307v9.8535H66.1494Z" transform="translate(-3.0635 -10.9585)"/><rect class="cls-1" x="33.529" y="22.0453" width="2.2808" height="8.4231" transform="translate(-9.476 1.0272) rotate(-17.9821)"/></svg>
